<?xml version="1.0" encoding="utf-8"?>
<!-- Generator: Adobe Illustrator 14.0.0, SVG Export Plug-In  -->
<!DOCTYPE svg PUBLIC "-//W3C//DTD SVG 1.1//EN" "http://www.w3.org/Graphics/SVG/1.1/DTD/svg11.dtd" [
	<!ENTITY ns_flows "http://ns.adobe.com/Flows/1.0/">
]>
<svg version="1.1"
	 xmlns="http://www.w3.org/2000/svg" xmlns:xlink="http://www.w3.org/1999/xlink" xmlns:a="http://ns.adobe.com/AdobeSVGViewerExtensions/3.0/"
	 x="0px" y="0px" width="630px" height="305px" viewBox="0 -5.559 630 305" enable-background="new 0 -5.559 630 305"
	 xml:space="preserve">
<defs>
</defs>
<polygon fill="none" points="467.419,299.408 315,299.378 315,299.441 630,299.441 586.551,299.408 "/>
<polygon fill="none" points="476.769,271.014 315,297.527 315,299.378 476.768,271.016 "/>
<polygon fill="#5D883C" points="476.768,271.016 315,299.378 467.419,299.408 "/>
<polygon fill="#689840" points="467.419,299.408 586.551,299.408 549.06,273.479 476.881,270.996 "/>
<polygon fill="#689840" points="476.769,271.014 476.768,271.016 476.881,270.996 "/>
<polygon fill="#689840" points="476.768,271.016 467.419,299.408 476.881,270.996 "/>
<polygon fill="#73A841" points="586.551,299.408 630,299.441 630,267.623 549.06,273.479 "/>
<polygon fill="#95C43D" points="476.79,270.948 476.769,271.014 476.881,270.996 "/>
<polygon fill="#73A841" points="460.41,244.016 446.746,255.229 476.79,270.948 476.812,270.883 "/>
<polygon fill="#73A841" points="476.812,270.883 476.79,270.948 476.881,270.996 "/>
<polygon fill="#81BA41" points="407.854,228.949 377.72,220.189 446.746,255.229 460.41,244.016 "/>
<polygon fill="#7CAC41" points="428.526,229.299 455.856,225.094 377.72,220.189 408.139,228.954 "/>
<polygon fill="#7CAC41" points="408.139,228.954 377.72,220.189 407.854,228.949 "/>
<polygon fill="#91C53E" points="408.139,228.954 460.41,244.016 528.388,244.016 483.537,230.701 455.856,225.094 428.526,229.299 
	"/>
<polygon fill="#91C53E" points="407.854,228.949 460.41,244.016 408.139,228.954 "/>
<polygon fill="#5D883C" points="460.41,244.016 476.812,270.883 476.881,270.676 549.06,273.479 528.388,244.016 "/>
<polygon fill="#5D883C" points="476.812,270.883 476.881,270.996 549.06,273.479 476.881,270.676 "/>
<polygon fill="#73A841" points="540.301,234.556 528.388,244.016 549.06,273.479 570.551,248.688 "/>
<polygon fill="#95C43D" points="630,267.492 630,248.498 549.06,273.479 "/>
<polygon fill="#95C43D" points="549.06,273.479 630,267.623 630,267.492 "/>
<polygon fill="#81BA41" points="570.551,248.688 549.06,273.479 630,248.498 630,236.919 590.756,225.796 "/>
<polygon fill="#91C53E" points="590.756,225.796 540.301,234.556 570.551,248.688 "/>
<polygon fill="#91C53E" points="528.388,244.016 540.301,234.556 507.364,223.343 455.856,225.094 483.537,230.701 "/>
<polygon fill="none" points="162.581,299.408 315,299.378 315,299.441 0,299.441 43.448,299.408 "/>
<polygon fill="none" points="153.231,271.014 315,297.527 315,299.378 153.232,271.016 "/>
<polygon fill="#5D883C" points="153.232,271.016 315,299.378 162.581,299.408 "/>
<polygon fill="#689840" points="162.581,299.408 43.448,299.408 80.94,273.479 153.121,270.996 "/>
<polygon fill="#689840" points="153.231,271.014 153.232,271.016 153.121,270.996 "/>
<polygon fill="#689840" points="153.232,271.016 162.581,299.408 153.121,270.996 "/>
<polygon fill="#73A841" points="43.448,299.408 0,299.441 0,267.623 80.94,273.479 "/>
<polygon fill="#95C43D" points="446.746,255.229 377.72,220.189 346.536,288.161 252.28,220.189 183.254,255.229 153.21,270.948 
	153.231,271.014 315,299.441 476.769,271.014 476.79,270.948 "/>
<polygon fill="#95C43D" points="153.21,270.948 153.231,271.014 153.121,270.996 "/>
<polygon fill="#73A841" points="169.588,244.016 183.254,255.229 153.21,270.948 153.189,270.883 "/>
<polygon fill="#73A841" points="153.189,270.883 153.21,270.948 153.121,270.996 "/>
<polygon fill="#81BA41" points="222.147,228.949 252.28,220.189 183.254,255.229 169.588,244.016 "/>
<polygon fill="#7CAC41" points="201.474,229.299 174.143,225.094 252.28,220.189 221.862,228.954 "/>
<polygon fill="#7CAC41" points="221.862,228.954 252.28,220.189 222.147,228.949 "/>
<polygon fill="#91C53E" points="221.862,228.954 169.588,244.016 101.613,244.016 146.463,230.701 174.143,225.094 201.474,229.299 
	"/>
<polygon fill="#91C53E" points="222.147,228.949 169.588,244.016 221.862,228.954 "/>
<polygon fill="#5D883C" points="169.588,244.016 153.189,270.883 153.121,270.676 80.94,273.479 101.613,244.016 "/>
<polygon fill="#5D883C" points="153.189,270.883 153.121,270.996 80.94,273.479 153.121,270.676 "/>
<polygon fill="#73A841" points="89.7,234.556 101.613,244.016 80.94,273.479 59.449,248.688 "/>
<polygon fill="#95C43D" points="0,267.492 0,248.498 80.94,273.479 "/>
<polygon fill="#95C43D" points="80.94,273.479 0,267.623 0,267.492 "/>
<polygon fill="#81BA41" points="59.449,248.688 80.94,273.479 0,248.498 0,236.919 39.244,225.796 "/>
<polygon fill="#91C53E" points="39.244,225.796 89.7,234.556 59.449,248.688 "/>
<polygon fill="#91C53E" points="101.613,244.016 89.7,234.556 122.636,223.343 174.143,225.094 146.463,230.701 "/>
<polygon fill="#81BA41" points="307.992,217.03 252.28,220.189 346.536,288.161 377.72,220.189 "/>
<polygon fill="#73A841" points="252.28,220.189 183.254,255.229 315,299.441 "/>
<polygon fill="#81BA41" points="446.746,255.229 315,299.441 476.79,270.948 "/>
<polygon fill="#65321D" points="133.583,218.261 133.531,198.252 128.54,192.297 123.24,196.466 123.239,196.466 117.346,198.252 
	114.82,213.399 111.291,236.122 133.779,236.122 "/>
<polygon fill="#77411F" points="133.779,236.122 133.583,218.261 130.715,225.393 "/>
<polygon fill="#7B4022" points="117.346,198.252 120.827,168.087 133.532,186.65 125.264,198.252 "/>
<polygon fill="#63311E" points="120.827,139.776 120.827,168.087 133.531,186.65 129.702,135.425 "/>
<polygon fill="#65321D" points="133.531,198.252 133.531,186.65 125.265,198.252 "/>
<polygon fill="#77411F" points="120.827,168.087 129.702,135.425 120.827,139.776 "/>
<polygon fill="#77411F" points="131.006,152.872 139.739,142.443 135.372,155.787 "/>
<polygon fill="#63311E" points="143.799,143.837 139.739,142.443 135.372,155.787 "/>
<polygon fill="#77411F" points="132.395,171.443 135.372,155.787 131.563,160.316 "/>
<polygon fill="#63311E" points="131.006,152.872 135.372,155.787 131.563,160.316 "/>
<polygon fill="#63311E" points="120.827,139.776 120.827,168.087 133.531,186.65 129.702,135.425 "/>
<polygon fill="#65321D" points="133.531,198.252 133.531,186.65 125.265,198.252 "/>
<polygon fill="#77411F" points="120.827,168.087 129.702,135.425 120.827,139.776 "/>
<polygon fill="#77411F" points="131.006,152.872 139.739,142.443 135.372,155.787 "/>
<polygon fill="#63311E" points="143.799,143.837 139.739,142.443 135.372,155.787 "/>
<polygon fill="#77411F" points="132.395,171.443 135.372,155.787 131.563,160.316 "/>
<polygon fill="#63311E" points="131.006,152.872 135.372,155.787 131.563,160.316 "/>
<polygon fill="#8DBF3F" points="49.125,82.058 38.333,97.46 52.025,107.422 "/>
<polygon fill="#B3D334" points="98.086,5.453 62.816,17.288 80.451,27.267 "/>
<polygon fill="#B3D334" points="64.208,27.267 50.98,53.255 80.45,27.267 "/>
<polygon fill="#8DBF3F" points="62.816,17.288 64.208,27.267 80.45,27.267 "/>
<polygon fill="#8EC03F" points="45.18,40.261 50.98,53.255 64.207,27.267 "/>
<polygon fill="#B3D334" points="80.451,27.267 95.244,64.916 50.98,53.255 "/>
<polygon fill="#C5D92D" points="45.18,40.261 45.18,73.443 50.98,53.255 "/>
<polygon fill="#B1D235" points="95.243,64.916 50.98,53.255 45.18,73.443 "/>
<polygon fill="#B3D334" points="80.451,27.267 120.827,22.276 95.244,64.916 "/>
<polygon fill="#8DBF3F" points="98.086,5.453 120.826,22.276 80.451,27.267 "/>
<polygon fill="#C5D92D" points="106.207,0.581 98.086,5.453 120.827,22.276 "/>
<polygon fill="#B3D334" points="146.352,0 106.208,0.581 120.827,22.276 "/>
<polygon fill="#8DBF3F" points="95.243,64.916 60.262,99.2 45.18,73.443 "/>
<polygon fill="#B3D334" points="48.08,95.372 45.179,73.443 60.262,99.2 50.98,114.864 "/>
<polygon fill="#70A742" points="86.541,136.444 52.721,124.435 50.98,114.864 "/>
<polygon fill="#8DBF3F" points="60.262,99.2 50.98,114.864 86.542,136.444 "/>
<polygon fill="#9DC73B" points="95.243,64.916 86.541,136.444 60.262,99.2 "/>
<polygon fill="#71A742" points="143.277,64.916 95.243,64.916 86.541,136.444 "/>
<polygon fill="#508F40" points="133.531,125.653 86.541,136.444 143.276,64.916 "/>
<polygon fill="#8DBF3F" points="120.827,22.276 143.276,64.916 95.242,64.916 "/>
<polygon fill="#70A742" points="163.522,16.36 120.826,22.276 143.277,64.916 "/>
<polygon fill="#64A042" points="146.352,0 163.522,16.36 120.827,22.276 "/>
<polygon fill="#64A042" points="193.573,61.261 143.277,64.916 163.522,16.36 "/>
<polygon fill="#8CBF3F" points="184.871,19.841 193.573,61.261 163.522,16.36 "/>
<polygon fill="#8DBF3F" points="201.927,56.852 187.554,32.611 193.573,61.261 "/>
<polygon fill="#508F40" points="143.277,64.916 168.424,143.405 193.573,61.261 "/>
<polygon fill="#71A742" points="133.531,125.653 168.426,143.405 143.276,64.916 "/>
<polygon fill="#2A7B3D" points="86.541,136.444 119.608,134.529 133.532,125.653 "/>
<polygon fill="#4F8F40" points="129.18,133.485 133.531,125.653 119.608,134.529 "/>
<polygon fill="#4F9041" points="168.425,143.405 133.531,125.653 154.067,144.449 "/>
<polygon fill="#6BA843" points="161.725,149.844 129.702,140.099 129.18,133.485 154.067,144.449 "/>
<polygon fill="#71A742" points="133.531,125.653 129.18,133.485 154.067,144.449 "/>
<polygon fill="#71A742" points="201.927,56.852 201.927,73.443 193.573,61.261 "/>
<polygon fill="#2A7B3D" points="190.962,106.684 193.573,61.261 168.424,143.405 "/>
<polygon fill="#508F40" points="190.614,125.653 168.426,143.405 190.962,106.684 "/>
<polygon fill="#508F40" points="201.927,73.443 190.962,106.684 193.573,61.261 "/>
<polygon fill="#6FA842" points="206.452,100.679 201.927,73.443 190.962,106.684 "/>
<polygon fill="#70A742" points="190.614,125.653 200.187,106.684 206.452,100.679 190.962,106.684 "/>
<polygon fill="#508F40" points="86.541,136.444 120.827,144.449 129.181,133.485 "/>
<polygon fill="#2A7B3D" points="129.702,140.099 120.827,144.449 129.18,133.485 "/>
<polygon fill="#2A7B3D" points="161.725,149.844 168.425,143.405 154.067,144.449 "/>
<polygon fill="#8DBF3F" points="49.125,82.058 38.333,97.46 52.025,107.422 "/>
<polygon fill="#B3D334" points="98.086,5.453 62.816,17.288 80.451,27.267 "/>
<polygon fill="#B3D334" points="64.208,27.267 50.98,53.255 80.45,27.267 "/>
<polygon fill="#8DBF3F" points="62.816,17.288 64.208,27.267 80.45,27.267 "/>
<polygon fill="#8EC03F" points="45.18,40.261 50.98,53.255 64.207,27.267 "/>
<polygon fill="#B3D334" points="80.451,27.267 95.244,64.916 50.98,53.255 "/>
<polygon fill="#C5D92D" points="45.18,40.261 45.18,73.443 50.98,53.255 "/>
<polygon fill="#B1D235" points="95.243,64.916 50.98,53.255 45.18,73.443 "/>
<polygon fill="#B3D334" points="80.451,27.267 120.827,22.276 95.244,64.916 "/>
<polygon fill="#8DBF3F" points="98.086,5.453 120.826,22.276 80.451,27.267 "/>
<polygon fill="#C5D92D" points="106.207,0.581 98.086,5.453 120.827,22.276 "/>
<polygon fill="#B3D334" points="146.352,0 106.208,0.581 120.827,22.276 "/>
<polygon fill="#8DBF3F" points="95.243,64.916 60.262,99.2 45.18,73.443 "/>
<polygon fill="#B3D334" points="48.08,95.372 45.179,73.443 60.262,99.2 50.98,114.864 "/>
<polygon fill="#70A742" points="86.541,136.444 52.721,124.435 50.98,114.864 "/>
<polygon fill="#8DBF3F" points="60.262,99.2 50.98,114.864 86.542,136.444 "/>
<polygon fill="#9DC73B" points="95.243,64.916 86.541,136.444 60.262,99.2 "/>
<polygon fill="#71A742" points="143.277,64.916 95.243,64.916 86.541,136.444 "/>
<polygon fill="#508F40" points="133.531,125.653 86.541,136.444 143.276,64.916 "/>
<polygon fill="#8DBF3F" points="120.827,22.276 143.276,64.916 95.242,64.916 "/>
<polygon fill="#70A742" points="163.522,16.36 120.826,22.276 143.277,64.916 "/>
<polygon fill="#64A042" points="146.352,0 163.522,16.36 120.827,22.276 "/>
<polygon fill="#64A042" points="193.573,61.261 143.277,64.916 163.522,16.36 "/>
<polygon fill="#8CBF3F" points="184.871,19.841 193.573,61.261 163.522,16.36 "/>
<polygon fill="#8DBF3F" points="201.927,56.852 187.554,32.611 193.573,61.261 "/>
<polygon fill="#508F40" points="143.277,64.916 168.424,143.405 193.573,61.261 "/>
<polygon fill="#71A742" points="133.531,125.653 168.426,143.405 143.276,64.916 "/>
<polygon fill="#2A7B3D" points="86.541,136.444 119.608,134.529 133.532,125.653 "/>
<polygon fill="#4F8F40" points="129.18,133.485 133.531,125.653 119.608,134.529 "/>
<polygon fill="#4F9041" points="168.425,143.405 133.531,125.653 154.067,144.449 "/>
<polygon fill="#6BA843" points="161.725,149.844 129.702,140.099 129.18,133.485 154.067,144.449 "/>
<polygon fill="#71A742" points="133.531,125.653 129.18,133.485 154.067,144.449 "/>
<polygon fill="#71A742" points="201.927,56.852 201.927,73.443 193.573,61.261 "/>
<polygon fill="#2A7B3D" points="190.962,106.684 193.573,61.261 168.424,143.405 "/>
<polygon fill="#508F40" points="190.614,125.653 168.426,143.405 190.962,106.684 "/>
<polygon fill="#508F40" points="201.927,73.443 190.962,106.684 193.573,61.261 "/>
<polygon fill="#6FA842" points="206.452,100.679 201.927,73.443 190.962,106.684 "/>
<polygon fill="#70A742" points="190.614,125.653 200.187,106.684 206.452,100.679 190.962,106.684 "/>
<polygon fill="#508F40" points="86.541,136.444 120.827,144.449 129.181,133.485 "/>
<polygon fill="#2A7B3D" points="129.702,140.099 120.827,144.449 129.18,133.485 "/>
<polygon fill="#2A7B3D" points="161.725,149.844 168.425,143.405 154.067,144.449 "/>
<polygon fill="#77411F" points="121.305,164.013 112.573,153.586 116.939,166.929 "/>
<polygon fill="#63311E" points="108.512,154.979 112.573,153.586 116.939,166.929 "/>
<polygon fill="#77411F" points="119.917,182.588 116.939,166.929 120.748,171.459 "/>
<polygon fill="#63311E" points="121.305,164.013 116.939,166.929 120.749,171.459 "/>
<polygon fill="#8DBF3F" points="88.645,157.969 89.325,162.321 93.255,161.778 "/>
<polygon fill="#B3D334" points="84.463,137.085 80.434,144.812 85.031,143.633 "/>
<polygon fill="#B3D334" points="82.29,146.272 84.279,152.807 85.031,143.633 "/>
<polygon fill="#8DBF3F" points="80.434,144.812 82.29,146.272 85.031,143.633 "/>
<polygon fill="#8EC03F" points="81.188,151.557 84.279,152.807 82.29,146.272 "/>
<polygon fill="#B3D334" points="85.031,143.633 93.643,147.583 84.279,152.807 "/>
<polygon fill="#C5D92D" points="81.188,151.557 86.578,157.154 84.279,152.807 "/>
<polygon fill="#B1D235" points="93.643,147.583 84.279,152.807 86.579,157.154 "/>
<polygon fill="#B3D334" points="85.031,143.633 91.035,136.231 93.643,147.583 "/>
<polygon fill="#8DBF3F" points="84.463,137.085 91.035,136.231 85.031,143.633 "/>
<polygon fill="#C5D92D" points="85.042,134.944 84.462,137.085 91.035,136.231 "/>
<polygon fill="#B3D334" points="91.723,128.324 85.042,134.944 91.035,136.231 "/>
<polygon fill="#8DBF3F" points="93.643,147.583 93.31,159.053 86.579,157.154 "/>
<polygon fill="#B3D334" points="90.632,160.387 86.579,157.154 93.31,159.053 94.288,163.205 "/>
<polygon fill="#70A742" points="103.795,161.069 96.136,164.535 94.287,163.205 "/>
<polygon fill="#8DBF3F" points="93.311,159.053 94.287,163.205 103.795,161.069 "/>
<polygon fill="#9DC73B" points="93.643,147.583 103.794,161.069 93.31,159.053 "/>
<polygon fill="#71A742" points="101.75,139.78 93.644,147.583 103.795,161.069 "/>
<polygon fill="#508F40" points="109.973,151.614 103.795,161.069 101.75,139.78 "/>
<polygon fill="#8DBF3F" points="91.035,136.231 101.75,139.779 93.644,147.583 "/>
<polygon fill="#70A742" points="97.279,128.295 91.035,136.231 101.75,139.78 "/>
<polygon fill="#64A042" points="91.723,128.324 97.279,128.295 91.035,136.231 "/>
<polygon fill="#64A042" points="109.646,130.993 101.75,139.78 97.28,128.295 "/>
<polygon fill="#8CBF3F" points="101.447,125.415 109.646,130.993 97.28,128.295 "/>
<polygon fill="#8DBF3F" points="110.339,128.892 103.974,127.136 109.646,130.993 "/>
<polygon fill="#508F40" points="101.75,139.78 118.747,148.94 109.646,130.993 "/>
<polygon fill="#71A742" points="109.973,151.614 118.747,148.94 101.75,139.78 "/>
<polygon fill="#2A7B3D" points="103.795,161.069 109.065,155.376 109.973,151.614 "/>
<polygon fill="#4F8F40" points="110.512,153.643 109.973,151.614 109.066,155.377 "/>
<polygon fill="#4F9041" points="118.747,148.94 109.973,151.614 116.493,151.449 "/>
<polygon fill="#6BA843" points="118.662,151.116 111.673,154.674 110.512,153.643 116.493,151.449 "/>
<polygon fill="#71A742" points="109.973,151.614 110.512,153.643 116.493,151.449 "/>
<polygon fill="#71A742" points="110.339,128.892 113.034,131.69 109.646,130.993 "/>
<polygon fill="#2A7B3D" points="116.584,139.082 109.646,130.993 118.747,148.94 "/>
<polygon fill="#508F40" points="119.607,142.341 118.747,148.94 116.584,139.082 "/>
<polygon fill="#508F40" points="113.034,131.69 116.584,139.082 109.646,130.993 "/>
<polygon fill="#6FA842" points="118.224,135.555 113.034,131.69 116.584,139.082 "/>
<polygon fill="#70A742" points="119.607,142.341 118.141,137.583 118.224,135.555 116.584,139.082 "/>
<polygon fill="#508F40" points="103.795,161.069 110.882,156.851 110.512,153.643 "/>
<polygon fill="#2A7B3D" points="111.673,154.674 110.882,156.851 110.512,153.643 "/>
<polygon fill="#2A7B3D" points="118.662,151.116 118.747,148.94 116.493,151.449 "/>
<polygon fill="#8DBF3F" points="88.645,157.969 89.325,162.321 93.255,161.778 "/>
<polygon fill="#B3D334" points="84.463,137.085 80.434,144.812 85.031,143.633 "/>
<polygon fill="#B3D334" points="82.29,146.272 84.279,152.807 85.031,143.633 "/>
<polygon fill="#8DBF3F" points="80.434,144.812 82.29,146.272 85.031,143.633 "/>
<polygon fill="#8EC03F" points="81.188,151.557 84.279,152.807 82.29,146.272 "/>
<polygon fill="#B3D334" points="85.031,143.633 93.643,147.583 84.279,152.807 "/>
<polygon fill="#C5D92D" points="81.188,151.557 86.578,157.154 84.279,152.807 "/>
<polygon fill="#B1D235" points="93.643,147.583 84.279,152.807 86.579,157.154 "/>
<polygon fill="#B3D334" points="85.031,143.633 91.035,136.231 93.643,147.583 "/>
<polygon fill="#8DBF3F" points="84.463,137.085 91.035,136.231 85.031,143.633 "/>
<polygon fill="#C5D92D" points="85.042,134.944 84.462,137.085 91.035,136.231 "/>
<polygon fill="#B3D334" points="91.723,128.324 85.042,134.944 91.035,136.231 "/>
<polygon fill="#8DBF3F" points="93.643,147.583 93.31,159.053 86.579,157.154 "/>
<polygon fill="#B3D334" points="90.632,160.387 86.579,157.154 93.31,159.053 94.288,163.205 "/>
<polygon fill="#70A742" points="103.795,161.069 96.136,164.535 94.287,163.205 "/>
<polygon fill="#8DBF3F" points="93.311,159.053 94.287,163.205 103.795,161.069 "/>
<polygon fill="#9DC73B" points="93.643,147.583 103.794,161.069 93.31,159.053 "/>
<polygon fill="#71A742" points="101.75,139.78 93.644,147.583 103.795,161.069 "/>
<polygon fill="#508F40" points="109.973,151.614 103.795,161.069 101.75,139.78 "/>
<polygon fill="#8DBF3F" points="91.035,136.231 101.75,139.779 93.644,147.583 "/>
<polygon fill="#70A742" points="97.279,128.295 91.035,136.231 101.75,139.78 "/>
<polygon fill="#64A042" points="91.723,128.324 97.279,128.295 91.035,136.231 "/>
<polygon fill="#64A042" points="109.646,130.993 101.75,139.78 97.28,128.295 "/>
<polygon fill="#8CBF3F" points="101.447,125.415 109.646,130.993 97.28,128.295 "/>
<polygon fill="#8DBF3F" points="110.339,128.892 103.974,127.136 109.646,130.993 "/>
<polygon fill="#508F40" points="101.75,139.78 118.747,148.94 109.646,130.993 "/>
<polygon fill="#71A742" points="109.973,151.614 118.747,148.94 101.75,139.78 "/>
<polygon fill="#2A7B3D" points="103.795,161.069 109.065,155.376 109.973,151.614 "/>
<polygon fill="#4F8F40" points="110.512,153.643 109.973,151.614 109.066,155.377 "/>
<polygon fill="#4F9041" points="118.747,148.94 109.973,151.614 116.493,151.449 "/>
<polygon fill="#6BA843" points="118.662,151.116 111.673,154.674 110.512,153.643 116.493,151.449 "/>
<polygon fill="#71A742" points="109.973,151.614 110.512,153.643 116.493,151.449 "/>
<polygon fill="#71A742" points="110.339,128.892 113.034,131.69 109.646,130.993 "/>
<polygon fill="#2A7B3D" points="116.584,139.082 109.646,130.993 118.747,148.94 "/>
<polygon fill="#508F40" points="119.607,142.341 118.747,148.94 116.584,139.082 "/>
<polygon fill="#508F40" points="113.034,131.69 116.584,139.082 109.646,130.993 "/>
<polygon fill="#6FA842" points="118.224,135.555 113.034,131.69 116.584,139.082 "/>
<polygon fill="#70A742" points="119.607,142.341 118.141,137.583 118.224,135.555 116.584,139.082 "/>
<polygon fill="#508F40" points="103.795,161.069 110.882,156.851 110.512,153.643 "/>
<polygon fill="#2A7B3D" points="111.673,154.674 110.882,156.851 110.512,153.643 "/>
<polygon fill="#2A7B3D" points="118.662,151.116 118.747,148.94 116.493,151.449 "/>
<polygon fill="#7B4022" points="117.346,198.252 120.827,168.087 133.532,186.65 114.82,213.399 "/>
<polygon fill="#5D883C" points="30.917,266.58 29.361,266.58 29.361,252.97 30.917,252.97 30.917,266.58 "/>
<polygon fill="#5D883C" points="23.528,258.413 29.167,262.303 20.417,266.775 14.778,261.136 "/>
<polygon fill="#5D883C" points="30.528,261.525 39.667,258.024 43.945,263.47 32.472,264.83 "/>
<polygon fill="#D2B234" points="23.139,246.553 23.139,250.441 30.139,254.07 30.139,250.7 "/>
<polygon fill="#DECA36" points="38.695,245.775 38.695,249.663 30.139,254.07 30.139,250.7 "/>
<polygon fill="#EDE937" points="23.139,246.553 30.139,250.7 38.695,245.775 30.722,240.719 "/>
<polygon fill="#FFFFFF" points="29.944,243.441 27.222,245.58 31.111,248.108 35.389,245.775 "/>
<polygon fill="#5D883C" points="604.333,289.656 602.778,289.656 602.778,276.045 604.333,276.045 604.333,289.656 "/>
<polygon fill="#5D883C" points="596.944,281.488 602.583,285.378 593.833,289.85 588.195,284.211 "/>
<polygon fill="#5D883C" points="603.945,284.6 613.083,281.1 617.361,286.545 605.889,287.905 "/>
<polygon fill="#D2B234" points="596.556,269.628 596.556,273.516 603.555,277.146 603.555,273.775 "/>
<polygon fill="#DECA36" points="612.111,268.85 612.111,272.739 603.555,277.146 603.555,273.775 "/>
<polygon fill="#EDE937" points="596.556,269.628 603.555,273.775 612.111,268.85 604.139,263.794 "/>
<polygon fill="#FFFFFF" points="603.361,266.517 600.639,268.656 604.527,271.184 608.805,268.85 "/>
</svg>
